<svg xmlns="http://www.w3.org/2000/svg" xmlns:xlink="http://www.w3.org/1999/xlink" width="1920" zoomAndPan="magnify" viewBox="0 0 1440 809.999993" height="1080" preserveAspectRatio="xMidYMid meet" version="1.0"><defs><filter x="0%" y="0%" width="100%" height="100%" id="edb46555a4"><feColorMatrix values="0 0 0 0 1 0 0 0 0 1 0 0 0 0 1 0 0 0 1 0" color-interpolation-filters="sRGB"/></filter><g/><clipPath id="aaff98f5e8"><path d="M 30 611 L 512 611 L 512 615.726562 L 30 615.726562 Z M 30 611 " clip-rule="nonzero"/></clipPath><clipPath id="319a5b5421"><path d="M 944 612 L 1410 612 L 1410 615.726562 L 944 615.726562 Z M 944 612 " clip-rule="nonzero"/></clipPath><clipPath id="860190187d"><path d="M 436 59.976562 L 998 59.976562 L 998 613 L 436 613 Z M 436 59.976562 " clip-rule="nonzero"/></clipPath><clipPath id="9309294671"><path d="M 952 614 L 960 614 L 960 615.726562 L 952 615.726562 Z M 952 614 " clip-rule="nonzero"/></clipPath><clipPath id="9e9cef69a8"><path d="M 0 0 L 1436.300781 0 L 1436.300781 810 L 0 810 Z M 0 0 " clip-rule="nonzero"/></clipPath><clipPath id="348a69d6ce"><path d="M 0 0 L 1436.300781 0 L 1436.300781 810 L 0 810 Z M 0 0 " clip-rule="nonzero"/></clipPath><clipPath id="46b5ff92b4"><path d="M 12.050781 0 L 1417.550781 0 L 1417.550781 810 L 12.050781 810 Z M 12.050781 0 " clip-rule="nonzero"/></clipPath><linearGradient x1="-439.93886" gradientTransform="matrix(0.750016, 0, 0, 0.750016, 530.356804, 138.55935)" y1="-435.860862" x2="1037.029324" gradientUnits="userSpaceOnUse" y2="1041.107325" id="f9d52a3cc8"><stop stop-opacity="1" stop-color="rgb(40.388489%, 14.509583%, 26.269531%)" offset="0"/><stop stop-opacity="1" stop-color="rgb(40.388489%, 14.509583%, 26.269531%)" offset="0.25"/><stop stop-opacity="1" stop-color="rgb(40.388489%, 14.509583%, 26.269531%)" offset="0.3125"/><stop stop-opacity="1" stop-color="rgb(40.388489%, 14.509583%, 26.269531%)" offset="0.320312"/><stop stop-opacity="1" stop-color="rgb(41.120911%, 14.964294%, 27.178955%)" offset="0.324219"/><stop stop-opacity="1" stop-color="rgb(41.854858%, 15.419006%, 28.088379%)" offset="0.328125"/><stop stop-opacity="1" stop-color="rgb(42.791748%, 16.000366%, 29.251099%)" offset="0.332031"/><stop stop-opacity="1" stop-color="rgb(43.728638%, 16.581726%, 30.415344%)" offset="0.335938"/><stop stop-opacity="1" stop-color="rgb(44.665527%, 17.163086%, 31.578064%)" offset="0.339844"/><stop stop-opacity="1" stop-color="rgb(45.603943%, 17.745972%, 32.74231%)" offset="0.34375"/><stop stop-opacity="1" stop-color="rgb(46.540833%, 18.327332%, 33.905029%)" offset="0.347656"/><stop stop-opacity="1" stop-color="rgb(47.479248%, 18.908691%, 35.069275%)" offset="0.351562"/><stop stop-opacity="1" stop-color="rgb(48.416138%, 19.490051%, 36.231995%)" offset="0.355469"/><stop stop-opacity="1" stop-color="rgb(49.353027%, 20.072937%, 37.39624%)" offset="0.359375"/><stop stop-opacity="1" stop-color="rgb(50.289917%, 20.654297%, 38.55896%)" offset="0.363281"/><stop stop-opacity="1" stop-color="rgb(51.228333%, 21.237183%, 39.723206%)" offset="0.367188"/><stop stop-opacity="1" stop-color="rgb(52.165222%, 21.818542%, 40.885925%)" offset="0.371094"/><stop stop-opacity="1" stop-color="rgb(53.102112%, 22.399902%, 42.050171%)" offset="0.375"/><stop stop-opacity="1" stop-color="rgb(54.039001%, 22.981262%, 43.214417%)" offset="0.378906"/><stop stop-opacity="1" stop-color="rgb(54.977417%, 23.564148%, 44.378662%)" offset="0.382812"/><stop stop-opacity="1" stop-color="rgb(55.914307%, 24.145508%, 45.541382%)" offset="0.386719"/><stop stop-opacity="1" stop-color="rgb(56.852722%, 24.726868%, 46.705627%)" offset="0.390625"/><stop stop-opacity="1" stop-color="rgb(57.789612%, 25.308228%, 47.868347%)" offset="0.394531"/><stop stop-opacity="1" stop-color="rgb(58.726501%, 25.891113%, 49.032593%)" offset="0.398438"/><stop stop-opacity="1" stop-color="rgb(59.663391%, 26.472473%, 50.195312%)" offset="0.402344"/><stop stop-opacity="1" stop-color="rgb(60.601807%, 27.053833%, 51.359558%)" offset="0.40625"/><stop stop-opacity="1" stop-color="rgb(61.538696%, 27.635193%, 52.522278%)" offset="0.410156"/><stop stop-opacity="1" stop-color="rgb(62.475586%, 28.218079%, 53.686523%)" offset="0.414062"/><stop stop-opacity="1" stop-color="rgb(63.380432%, 29.026794%, 54.670715%)" offset="0.417969"/><stop stop-opacity="1" stop-color="rgb(64.285278%, 29.837036%, 55.654907%)" offset="0.421875"/><stop stop-opacity="1" stop-color="rgb(65.170288%, 30.770874%, 56.539917%)" offset="0.425781"/><stop stop-opacity="1" stop-color="rgb(66.056824%, 31.704712%, 57.426453%)" offset="0.429688"/><stop stop-opacity="1" stop-color="rgb(66.941833%, 32.63855%, 58.312988%)" offset="0.433594"/><stop stop-opacity="1" stop-color="rgb(67.828369%, 33.573914%, 59.199524%)" offset="0.4375"/><stop stop-opacity="1" stop-color="rgb(68.714905%, 34.507751%, 60.084534%)" offset="0.441406"/><stop stop-opacity="1" stop-color="rgb(69.60144%, 35.441589%, 60.971069%)" offset="0.445312"/><stop stop-opacity="1" stop-color="rgb(70.48645%, 36.375427%, 61.856079%)" offset="0.449219"/><stop stop-opacity="1" stop-color="rgb(71.372986%, 37.309265%, 62.742615%)" offset="0.453125"/><stop stop-opacity="1" stop-color="rgb(72.259521%, 38.243103%, 63.62915%)" offset="0.457031"/><stop stop-opacity="1" stop-color="rgb(73.146057%, 39.178467%, 64.515686%)" offset="0.460938"/><stop stop-opacity="1" stop-color="rgb(74.031067%, 40.112305%, 65.400696%)" offset="0.464844"/><stop stop-opacity="1" stop-color="rgb(74.917603%, 41.046143%, 66.287231%)" offset="0.46875"/><stop stop-opacity="1" stop-color="rgb(75.802612%, 41.97998%, 67.173767%)" offset="0.472656"/><stop stop-opacity="1" stop-color="rgb(76.689148%, 42.915344%, 68.060303%)" offset="0.476562"/><stop stop-opacity="1" stop-color="rgb(77.575684%, 43.849182%, 68.945312%)" offset="0.480469"/><stop stop-opacity="1" stop-color="rgb(78.462219%, 44.78302%, 69.831848%)" offset="0.484375"/><stop stop-opacity="1" stop-color="rgb(79.347229%, 45.716858%, 70.716858%)" offset="0.488281"/><stop stop-opacity="1" stop-color="rgb(80.233765%, 46.650696%, 71.603394%)" offset="0.492188"/><stop stop-opacity="1" stop-color="rgb(81.1203%, 47.584534%, 72.489929%)" offset="0.496094"/><stop stop-opacity="1" stop-color="rgb(82.006836%, 48.519897%, 73.376465%)" offset="0.5"/><stop stop-opacity="1" stop-color="rgb(82.891846%, 49.453735%, 74.261475%)" offset="0.503906"/><stop stop-opacity="1" stop-color="rgb(83.778381%, 50.387573%, 75.14801%)" offset="0.507812"/><stop stop-opacity="1" stop-color="rgb(84.120178%, 51.254272%, 75.567627%)" offset="0.511719"/><stop stop-opacity="1" stop-color="rgb(84.463501%, 52.120972%, 75.987244%)" offset="0.515625"/><stop stop-opacity="1" stop-color="rgb(84.204102%, 52.912903%, 75.889587%)" offset="0.519531"/><stop stop-opacity="1" stop-color="rgb(83.946228%, 53.704834%, 75.793457%)" offset="0.523438"/><stop stop-opacity="1" stop-color="rgb(83.686829%, 54.496765%, 75.695801%)" offset="0.527344"/><stop stop-opacity="1" stop-color="rgb(83.428955%, 55.288696%, 75.59967%)" offset="0.53125"/><stop stop-opacity="1" stop-color="rgb(83.169556%, 56.080627%, 75.502014%)" offset="0.535156"/><stop stop-opacity="1" stop-color="rgb(82.911682%, 56.872559%, 75.405884%)" offset="0.539062"/><stop stop-opacity="1" stop-color="rgb(82.652283%, 57.66449%, 75.308228%)" offset="0.542969"/><stop stop-opacity="1" stop-color="rgb(82.392883%, 58.456421%, 75.212097%)" offset="0.546875"/><stop stop-opacity="1" stop-color="rgb(82.133484%, 59.248352%, 75.114441%)" offset="0.550781"/><stop stop-opacity="1" stop-color="rgb(81.87561%, 60.040283%, 75.018311%)" offset="0.554688"/><stop stop-opacity="1" stop-color="rgb(81.616211%, 60.832214%, 74.92218%)" offset="0.558594"/><stop stop-opacity="1" stop-color="rgb(81.358337%, 61.624146%, 74.82605%)" offset="0.5625"/><stop stop-opacity="1" stop-color="rgb(81.098938%, 62.416077%, 74.728394%)" offset="0.566406"/><stop stop-opacity="1" stop-color="rgb(80.841064%, 63.208008%, 74.632263%)" offset="0.570312"/><stop stop-opacity="1" stop-color="rgb(80.581665%, 63.999939%, 74.534607%)" offset="0.574219"/><stop stop-opacity="1" stop-color="rgb(80.323792%, 64.79187%, 74.438477%)" offset="0.578125"/><stop stop-opacity="1" stop-color="rgb(80.064392%, 65.583801%, 74.34082%)" offset="0.582031"/><stop stop-opacity="1" stop-color="rgb(79.806519%, 66.375732%, 74.24469%)" offset="0.585938"/><stop stop-opacity="1" stop-color="rgb(79.547119%, 67.167664%, 74.147034%)" offset="0.589844"/><stop stop-opacity="1" stop-color="rgb(79.289246%, 67.959595%, 74.050903%)" offset="0.59375"/><stop stop-opacity="1" stop-color="rgb(79.029846%, 68.751526%, 73.953247%)" offset="0.597656"/><stop stop-opacity="1" stop-color="rgb(78.770447%, 69.543457%, 73.857117%)" offset="0.601562"/><stop stop-opacity="1" stop-color="rgb(78.599548%, 70.065308%, 73.79303%)" offset="0.605469"/><stop stop-opacity="1" stop-color="rgb(78.42865%, 70.588684%, 73.728943%)" offset="0.609375"/><stop stop-opacity="1" stop-color="rgb(78.42865%, 70.588684%, 73.728943%)" offset="0.625"/><stop stop-opacity="1" stop-color="rgb(78.42865%, 70.588684%, 73.728943%)" offset="0.634394"/><stop stop-opacity="1" stop-color="rgb(78.42865%, 70.588684%, 73.728943%)" offset="0.75"/><stop stop-opacity="1" stop-color="rgb(78.42865%, 70.588684%, 73.728943%)" offset="1"/></linearGradient><clipPath id="3437dc466f"><rect x="0" width="1437" y="0" height="810"/></clipPath><clipPath id="3ce22a9c46"><path d="M 0 0 L 1436.300781 0 L 1436.300781 810 L 0 810 Z M 0 0 " clip-rule="nonzero"/></clipPath><clipPath id="75010ae7fa"><rect x="0" width="1437" y="0" height="810"/></clipPath><clipPath id="f9d5433bf2"><rect x="0" width="1437" y="0" height="810"/></clipPath><mask id="6c501add3f"><g filter="url(#edb46555a4)"><g transform="matrix(1, 0, 0, 1, 0, 0.000000000000039746)"><g clip-path="url(#f9d5433bf2)"><g clip-path="url(#3ce22a9c46)"><g transform="matrix(1, 0, 0, 1, 0, 0.000000000000039746)"><g clip-path="url(#75010ae7fa)"><g fill="#000000" fill-opacity="1"><g transform="translate(549.368657, 412.688452)"><g><path d="M 151 -72.28125 C 155.125 -72.28125 158.4375 -71.289062 160.9375 -69.3125 C 163.445312 -67.34375 164.703125 -64.210938 164.703125 -59.921875 C 164.703125 -56.515625 163.359375 -53.601562 160.671875 -51.1875 C 157.984375 -48.769531 154.757812 -47.5625 151 -47.5625 L 134.875 -47.5625 L 134.875 -13.703125 C 134.875 -9.941406 133.578125 -6.71875 130.984375 -4.03125 C 128.390625 -1.34375 125.210938 0 121.453125 0 C 117.867188 0 114.820312 -1.34375 112.3125 -4.03125 C 109.800781 -6.71875 108.546875 -9.941406 108.546875 -13.703125 L 108.546875 -47.5625 L 19.078125 -47.5625 C 14.953125 -47.5625 11.632812 -48.90625 9.125 -51.59375 C 6.625 -54.28125 5.375 -57.410156 5.375 -60.984375 C 5.375 -64.035156 6.269531 -66.722656 8.0625 -69.046875 L 110.96875 -203.9375 C 114.007812 -207.875 117.769531 -209.84375 122.25 -209.84375 C 126.007812 -209.84375 129.050781 -208.5 131.375 -205.8125 C 133.707031 -203.125 134.875 -199.8125 134.875 -195.875 L 134.875 -72.28125 Z M 40.84375 -72.28125 L 108.546875 -72.28125 L 108.546875 -161.21875 Z M 40.84375 -72.28125 "/></g></g></g><g fill="#000000" fill-opacity="1"><g transform="translate(724.816396, 412.688452)"><g><path d="M 77.65625 0 C 57.226562 0 41.414062 -9.222656 30.21875 -27.671875 C 19.03125 -46.117188 13.4375 -71.914062 13.4375 -105.0625 C 13.4375 -138.195312 19.03125 -163.988281 30.21875 -182.4375 C 41.414062 -200.882812 57.226562 -210.109375 77.65625 -210.109375 C 91.082031 -210.109375 102.632812 -205.898438 112.3125 -197.484375 C 121.988281 -189.066406 129.332031 -176.972656 134.34375 -161.203125 C 139.351562 -145.441406 141.859375 -126.726562 141.859375 -105.0625 C 141.859375 -83.382812 139.351562 -64.660156 134.34375 -48.890625 C 129.332031 -33.128906 121.988281 -21.039062 112.3125 -12.625 C 102.632812 -4.207031 91.082031 0 77.65625 0 Z M 77.65625 -27.9375 C 89.65625 -27.9375 98.742188 -35.007812 104.921875 -49.15625 C 111.097656 -63.3125 114.1875 -81.945312 114.1875 -105.0625 C 114.1875 -127.988281 111.050781 -146.613281 104.78125 -160.9375 C 98.519531 -175.269531 89.476562 -182.4375 77.65625 -182.4375 C 65.65625 -182.4375 56.5625 -175.316406 50.375 -161.078125 C 44.195312 -146.835938 41.109375 -128.164062 41.109375 -105.0625 C 41.109375 -81.769531 44.242188 -63.09375 50.515625 -49.03125 C 56.785156 -34.96875 65.832031 -27.9375 77.65625 -27.9375 Z M 77.65625 -27.9375 "/></g></g></g></g></g></g></g></g></g></mask><clipPath id="d88c44cae4"><path d="M 12.050781 0 L 1417.550781 0 L 1417.550781 810 L 12.050781 810 Z M 12.050781 0 " clip-rule="nonzero"/></clipPath><clipPath id="e45c498ef5"><rect x="0" width="1437" y="0" height="810"/></clipPath><clipPath id="8419e8dead"><rect x="0" width="1437" y="0" height="810"/></clipPath><clipPath id="ac7f204243"><path d="M 0 0.867188 L 1440 0.867188 L 1440 379 L 0 379 Z M 0 0.867188 " clip-rule="nonzero"/></clipPath><clipPath id="58a61dd7ba"><path d="M 0 0.867188 L 1440 0.867188 L 1440 379 L 0 379 Z M 0 0.867188 " clip-rule="nonzero"/></clipPath><clipPath id="37861d146f"><path d="M 0 14.429688 L 1440 14.429688 L 1440 379 L 0 379 Z M 0 14.429688 " clip-rule="nonzero"/></clipPath><linearGradient x1="198.107118" gradientTransform="matrix(1.130418, 0, 0, 1.13105, 17.477144, 194.123407)" y1="-372.439883" x2="996.203495" gradientUnits="userSpaceOnUse" y2="425.656506" id="822fcd21b7"><stop stop-opacity="1" stop-color="rgb(40.388489%, 14.509583%, 26.269531%)" offset="0"/><stop stop-opacity="1" stop-color="rgb(40.388489%, 14.509583%, 26.269531%)" offset="0.0625"/><stop stop-opacity="1" stop-color="rgb(40.388489%, 14.509583%, 26.269531%)" offset="0.09375"/><stop stop-opacity="1" stop-color="rgb(40.388489%, 14.509583%, 26.269531%)" offset="0.109375"/><stop stop-opacity="1" stop-color="rgb(40.388489%, 14.509583%, 26.269531%)" offset="0.117188"/><stop stop-opacity="1" stop-color="rgb(40.672302%, 14.685059%, 26.622009%)" offset="0.121094"/><stop stop-opacity="1" stop-color="rgb(40.957642%, 14.862061%, 26.974487%)" offset="0.125"/><stop stop-opacity="1" stop-color="rgb(41.271973%, 15.057373%, 27.365112%)" offset="0.128906"/><stop stop-opacity="1" stop-color="rgb(41.58783%, 15.252686%, 27.757263%)" offset="0.132813"/><stop stop-opacity="1" stop-color="rgb(41.902161%, 15.447998%, 28.147888%)" offset="0.136719"/><stop stop-opacity="1" stop-color="rgb(42.218018%, 15.644836%, 28.540039%)" offset="0.140625"/><stop stop-opacity="1" stop-color="rgb(42.533875%, 15.840149%, 28.930664%)" offset="0.144531"/><stop stop-opacity="1" stop-color="rgb(42.849731%, 16.035461%, 29.322815%)" offset="0.148438"/><stop stop-opacity="1" stop-color="rgb(43.164062%, 16.230774%, 29.71344%)" offset="0.152344"/><stop stop-opacity="1" stop-color="rgb(43.479919%, 16.427612%, 30.105591%)" offset="0.15625"/><stop stop-opacity="1" stop-color="rgb(43.79425%, 16.622925%, 30.496216%)" offset="0.160156"/><stop stop-opacity="1" stop-color="rgb(44.110107%, 16.818237%, 30.888367%)" offset="0.164063"/><stop stop-opacity="1" stop-color="rgb(44.424438%, 17.01355%, 31.278992%)" offset="0.167969"/><stop stop-opacity="1" stop-color="rgb(44.740295%, 17.210388%, 31.671143%)" offset="0.171875"/><stop stop-opacity="1" stop-color="rgb(45.054626%, 17.405701%, 32.061768%)" offset="0.175781"/><stop stop-opacity="1" stop-color="rgb(45.370483%, 17.601013%, 32.453918%)" offset="0.179688"/><stop stop-opacity="1" stop-color="rgb(45.68634%, 17.796326%, 32.844543%)" offset="0.183594"/><stop stop-opacity="1" stop-color="rgb(46.002197%, 17.993164%, 33.236694%)" offset="0.1875"/><stop stop-opacity="1" stop-color="rgb(46.316528%, 18.188477%, 33.627319%)" offset="0.191406"/><stop stop-opacity="1" stop-color="rgb(46.632385%, 18.383789%, 34.017944%)" offset="0.195313"/><stop stop-opacity="1" stop-color="rgb(46.946716%, 18.579102%, 34.408569%)" offset="0.199219"/><stop stop-opacity="1" stop-color="rgb(47.262573%, 18.77594%, 34.80072%)" offset="0.203125"/><stop stop-opacity="1" stop-color="rgb(47.576904%, 18.971252%, 35.191345%)" offset="0.207031"/><stop stop-opacity="1" stop-color="rgb(47.892761%, 19.166565%, 35.583496%)" offset="0.210938"/><stop stop-opacity="1" stop-color="rgb(48.207092%, 19.361877%, 35.974121%)" offset="0.214844"/><stop stop-opacity="1" stop-color="rgb(48.522949%, 19.55719%, 36.366272%)" offset="0.21875"/><stop stop-opacity="1" stop-color="rgb(48.838806%, 19.752502%, 36.756897%)" offset="0.222656"/><stop stop-opacity="1" stop-color="rgb(49.154663%, 19.949341%, 37.149048%)" offset="0.226563"/><stop stop-opacity="1" stop-color="rgb(49.468994%, 20.144653%, 37.539673%)" offset="0.230469"/><stop stop-opacity="1" stop-color="rgb(49.784851%, 20.339966%, 37.931824%)" offset="0.234375"/><stop stop-opacity="1" stop-color="rgb(50.099182%, 20.535278%, 38.322449%)" offset="0.238281"/><stop stop-opacity="1" stop-color="rgb(50.415039%, 20.732117%, 38.7146%)" offset="0.242188"/><stop stop-opacity="1" stop-color="rgb(50.72937%, 20.927429%, 39.105225%)" offset="0.246094"/><stop stop-opacity="1" stop-color="rgb(51.045227%, 21.122742%, 39.497375%)" offset="0.25"/><stop stop-opacity="1" stop-color="rgb(51.361084%, 21.318054%, 39.888%)" offset="0.253906"/><stop stop-opacity="1" stop-color="rgb(51.676941%, 21.514893%, 40.280151%)" offset="0.257812"/><stop stop-opacity="1" stop-color="rgb(51.991272%, 21.710205%, 40.670776%)" offset="0.261719"/><stop stop-opacity="1" stop-color="rgb(52.307129%, 21.905518%, 41.062927%)" offset="0.265625"/><stop stop-opacity="1" stop-color="rgb(52.62146%, 22.10083%, 41.453552%)" offset="0.269531"/><stop stop-opacity="1" stop-color="rgb(52.937317%, 22.297668%, 41.845703%)" offset="0.273438"/><stop stop-opacity="1" stop-color="rgb(53.251648%, 22.492981%, 42.236328%)" offset="0.277344"/><stop stop-opacity="1" stop-color="rgb(53.567505%, 22.688293%, 42.628479%)" offset="0.28125"/><stop stop-opacity="1" stop-color="rgb(53.881836%, 22.883606%, 43.019104%)" offset="0.285156"/><stop stop-opacity="1" stop-color="rgb(54.197693%, 23.080444%, 43.411255%)" offset="0.289062"/><stop stop-opacity="1" stop-color="rgb(54.51355%, 23.275757%, 43.80188%)" offset="0.292969"/><stop stop-opacity="1" stop-color="rgb(54.829407%, 23.471069%, 44.194031%)" offset="0.296875"/><stop stop-opacity="1" stop-color="rgb(55.143738%, 23.666382%, 44.584656%)" offset="0.300781"/><stop stop-opacity="1" stop-color="rgb(55.459595%, 23.86322%, 44.976807%)" offset="0.304688"/><stop stop-opacity="1" stop-color="rgb(55.773926%, 24.058533%, 45.367432%)" offset="0.308594"/><stop stop-opacity="1" stop-color="rgb(56.089783%, 24.253845%, 45.758057%)" offset="0.3125"/><stop stop-opacity="1" stop-color="rgb(56.404114%, 24.449158%, 46.148682%)" offset="0.316406"/><stop stop-opacity="1" stop-color="rgb(56.719971%, 24.645996%, 46.540833%)" offset="0.320312"/><stop stop-opacity="1" stop-color="rgb(57.034302%, 24.841309%, 46.931458%)" offset="0.324219"/><stop stop-opacity="1" stop-color="rgb(57.350159%, 25.036621%, 47.323608%)" offset="0.328125"/><stop stop-opacity="1" stop-color="rgb(57.666016%, 25.231934%, 47.714233%)" offset="0.332031"/><stop stop-opacity="1" stop-color="rgb(57.981873%, 25.427246%, 48.106384%)" offset="0.335938"/><stop stop-opacity="1" stop-color="rgb(58.296204%, 25.622559%, 48.497009%)" offset="0.339844"/><stop stop-opacity="1" stop-color="rgb(58.612061%, 25.819397%, 48.88916%)" offset="0.34375"/><stop stop-opacity="1" stop-color="rgb(58.926392%, 26.014709%, 49.279785%)" offset="0.347656"/><stop stop-opacity="1" stop-color="rgb(59.242249%, 26.210022%, 49.671936%)" offset="0.351562"/><stop stop-opacity="1" stop-color="rgb(59.55658%, 26.405334%, 50.062561%)" offset="0.355469"/><stop stop-opacity="1" stop-color="rgb(59.872437%, 26.602173%, 50.454712%)" offset="0.359375"/><stop stop-opacity="1" stop-color="rgb(60.188293%, 26.797485%, 50.845337%)" offset="0.363281"/><stop stop-opacity="1" stop-color="rgb(60.50415%, 26.992798%, 51.237488%)" offset="0.367188"/><stop stop-opacity="1" stop-color="rgb(60.818481%, 27.18811%, 51.628113%)" offset="0.371094"/><stop stop-opacity="1" stop-color="rgb(61.134338%, 27.384949%, 52.020264%)" offset="0.375"/><stop stop-opacity="1" stop-color="rgb(61.448669%, 27.580261%, 52.410889%)" offset="0.378906"/><stop stop-opacity="1" stop-color="rgb(61.764526%, 27.775574%, 52.80304%)" offset="0.382812"/><stop stop-opacity="1" stop-color="rgb(62.078857%, 27.970886%, 53.193665%)" offset="0.386719"/><stop stop-opacity="1" stop-color="rgb(62.394714%, 28.167725%, 53.585815%)" offset="0.390625"/><stop stop-opacity="1" stop-color="rgb(62.709045%, 28.363037%, 53.97644%)" offset="0.394531"/><stop stop-opacity="1" stop-color="rgb(63.024902%, 28.55835%, 54.368591%)" offset="0.398438"/><stop stop-opacity="1" stop-color="rgb(63.3255%, 28.851318%, 54.682922%)" offset="0.402344"/><stop stop-opacity="1" stop-color="rgb(63.627625%, 29.144287%, 54.997253%)" offset="0.40625"/><stop stop-opacity="1" stop-color="rgb(63.925171%, 29.458618%, 55.2948%)" offset="0.410156"/><stop stop-opacity="1" stop-color="rgb(64.224243%, 29.772949%, 55.593872%)" offset="0.414062"/><stop stop-opacity="1" stop-color="rgb(64.52179%, 30.08728%, 55.891418%)" offset="0.417969"/><stop stop-opacity="1" stop-color="rgb(64.819336%, 30.401611%, 56.190491%)" offset="0.421875"/><stop stop-opacity="1" stop-color="rgb(65.116882%, 30.714417%, 56.488037%)" offset="0.425781"/><stop stop-opacity="1" stop-color="rgb(65.415955%, 31.028748%, 56.785583%)" offset="0.429688"/><stop stop-opacity="1" stop-color="rgb(65.713501%, 31.343079%, 57.08313%)" offset="0.433594"/><stop stop-opacity="1" stop-color="rgb(66.012573%, 31.65741%, 57.382202%)" offset="0.4375"/><stop stop-opacity="1" stop-color="rgb(66.31012%, 31.971741%, 57.679749%)" offset="0.441406"/><stop stop-opacity="1" stop-color="rgb(66.607666%, 32.286072%, 57.977295%)" offset="0.445312"/><stop stop-opacity="1" stop-color="rgb(66.905212%, 32.600403%, 58.274841%)" offset="0.449219"/><stop stop-opacity="1" stop-color="rgb(67.204285%, 32.914734%, 58.573914%)" offset="0.453125"/><stop stop-opacity="1" stop-color="rgb(67.501831%, 33.229065%, 58.87146%)" offset="0.457031"/><stop stop-opacity="1" stop-color="rgb(67.799377%, 33.543396%, 59.170532%)" offset="0.460938"/><stop stop-opacity="1" stop-color="rgb(68.096924%, 33.856201%, 59.468079%)" offset="0.464844"/><stop stop-opacity="1" stop-color="rgb(68.395996%, 34.170532%, 59.765625%)" offset="0.46875"/><stop stop-opacity="1" stop-color="rgb(68.693542%, 34.484863%, 60.063171%)" offset="0.472656"/><stop stop-opacity="1" stop-color="rgb(68.992615%, 34.799194%, 60.362244%)" offset="0.476562"/><stop stop-opacity="1" stop-color="rgb(69.290161%, 35.113525%, 60.65979%)" offset="0.480469"/><stop stop-opacity="1" stop-color="rgb(69.587708%, 35.427856%, 60.957336%)" offset="0.484375"/><stop stop-opacity="1" stop-color="rgb(69.885254%, 35.742188%, 61.254883%)" offset="0.488281"/><stop stop-opacity="1" stop-color="rgb(70.184326%, 36.056519%, 61.553955%)" offset="0.492188"/><stop stop-opacity="1" stop-color="rgb(70.481873%, 36.37085%, 61.851501%)" offset="0.496094"/><stop stop-opacity="1" stop-color="rgb(70.779419%, 36.685181%, 62.150574%)" offset="0.5"/><stop stop-opacity="1" stop-color="rgb(71.076965%, 36.997986%, 62.44812%)" offset="0.503906"/><stop stop-opacity="1" stop-color="rgb(71.376038%, 37.312317%, 62.745667%)" offset="0.507812"/><stop stop-opacity="1" stop-color="rgb(71.673584%, 37.626648%, 63.043213%)" offset="0.511719"/><stop stop-opacity="1" stop-color="rgb(71.972656%, 37.940979%, 63.342285%)" offset="0.515625"/><stop stop-opacity="1" stop-color="rgb(72.270203%, 38.25531%, 63.639832%)" offset="0.519531"/><stop stop-opacity="1" stop-color="rgb(72.567749%, 38.569641%, 63.938904%)" offset="0.523438"/><stop stop-opacity="1" stop-color="rgb(72.865295%, 38.883972%, 64.23645%)" offset="0.527344"/><stop stop-opacity="1" stop-color="rgb(73.164368%, 39.198303%, 64.533997%)" offset="0.53125"/><stop stop-opacity="1" stop-color="rgb(73.461914%, 39.512634%, 64.831543%)" offset="0.535156"/><stop stop-opacity="1" stop-color="rgb(73.75946%, 39.826965%, 65.130615%)" offset="0.539062"/><stop stop-opacity="1" stop-color="rgb(74.057007%, 40.139771%, 65.428162%)" offset="0.542969"/><stop stop-opacity="1" stop-color="rgb(74.356079%, 40.454102%, 65.725708%)" offset="0.546875"/><stop stop-opacity="1" stop-color="rgb(74.653625%, 40.768433%, 66.023254%)" offset="0.550781"/><stop stop-opacity="1" stop-color="rgb(74.952698%, 41.082764%, 66.322327%)" offset="0.554688"/><stop stop-opacity="1" stop-color="rgb(75.250244%, 41.397095%, 66.619873%)" offset="0.558594"/><stop stop-opacity="1" stop-color="rgb(75.547791%, 41.711426%, 66.918945%)" offset="0.5625"/><stop stop-opacity="1" stop-color="rgb(75.845337%, 42.025757%, 67.216492%)" offset="0.566406"/><stop stop-opacity="1" stop-color="rgb(76.144409%, 42.340088%, 67.514038%)" offset="0.570313"/><stop stop-opacity="1" stop-color="rgb(76.441956%, 42.654419%, 67.811584%)" offset="0.574219"/><stop stop-opacity="1" stop-color="rgb(76.741028%, 42.96875%, 68.110657%)" offset="0.578125"/><stop stop-opacity="1" stop-color="rgb(77.038574%, 43.281555%, 68.408203%)" offset="0.582031"/><stop stop-opacity="1" stop-color="rgb(77.336121%, 43.595886%, 68.70575%)" offset="0.585938"/><stop stop-opacity="1" stop-color="rgb(77.633667%, 43.910217%, 69.003296%)" offset="0.589844"/><stop stop-opacity="1" stop-color="rgb(77.932739%, 44.224548%, 69.302368%)" offset="0.59375"/><stop stop-opacity="1" stop-color="rgb(78.230286%, 44.538879%, 69.599915%)" offset="0.597656"/><stop stop-opacity="1" stop-color="rgb(78.527832%, 44.85321%, 69.898987%)" offset="0.601563"/><stop stop-opacity="1" stop-color="rgb(78.825378%, 45.167542%, 70.196533%)" offset="0.605469"/><stop stop-opacity="1" stop-color="rgb(79.124451%, 45.481873%, 70.49408%)" offset="0.609375"/><stop stop-opacity="1" stop-color="rgb(79.421997%, 45.796204%, 70.791626%)" offset="0.613281"/><stop stop-opacity="1" stop-color="rgb(79.721069%, 46.110535%, 71.090698%)" offset="0.617188"/><stop stop-opacity="1" stop-color="rgb(80.018616%, 46.42334%, 71.388245%)" offset="0.621094"/><stop stop-opacity="1" stop-color="rgb(80.316162%, 46.737671%, 71.685791%)" offset="0.625"/><stop stop-opacity="1" stop-color="rgb(80.613708%, 47.052002%, 71.983337%)" offset="0.628906"/><stop stop-opacity="1" stop-color="rgb(80.912781%, 47.366333%, 72.28241%)" offset="0.632813"/><stop stop-opacity="1" stop-color="rgb(81.210327%, 47.680664%, 72.579956%)" offset="0.636719"/><stop stop-opacity="1" stop-color="rgb(81.507874%, 47.994995%, 72.879028%)" offset="0.640625"/><stop stop-opacity="1" stop-color="rgb(81.80542%, 48.309326%, 73.176575%)" offset="0.644531"/><stop stop-opacity="1" stop-color="rgb(82.104492%, 48.623657%, 73.474121%)" offset="0.648438"/><stop stop-opacity="1" stop-color="rgb(82.402039%, 48.937988%, 73.771667%)" offset="0.652344"/><stop stop-opacity="1" stop-color="rgb(82.701111%, 49.252319%, 74.07074%)" offset="0.65625"/><stop stop-opacity="1" stop-color="rgb(82.998657%, 49.565125%, 74.368286%)" offset="0.660156"/><stop stop-opacity="1" stop-color="rgb(83.296204%, 49.879456%, 74.665833%)" offset="0.664063"/><stop stop-opacity="1" stop-color="rgb(83.59375%, 50.193787%, 74.963379%)" offset="0.667969"/><stop stop-opacity="1" stop-color="rgb(83.892822%, 50.508118%, 75.262451%)" offset="0.671875"/><stop stop-opacity="1" stop-color="rgb(84.190369%, 50.822449%, 75.559998%)" offset="0.675781"/><stop stop-opacity="1" stop-color="rgb(84.487915%, 51.13678%, 75.85907%)" offset="0.679688"/><stop stop-opacity="1" stop-color="rgb(84.410095%, 51.054382%, 75.78125%)" offset="0.6875"/><stop stop-opacity="1" stop-color="rgb(84.033203%, 50.656128%, 75.404358%)" offset="0.691406"/><stop stop-opacity="1" stop-color="rgb(83.735657%, 50.341797%, 75.105286%)" offset="0.695313"/><stop stop-opacity="1" stop-color="rgb(83.436584%, 50.02594%, 74.806213%)" offset="0.699219"/><stop stop-opacity="1" stop-color="rgb(83.137512%, 49.711609%, 74.507141%)" offset="0.703125"/><stop stop-opacity="1" stop-color="rgb(82.83844%, 49.395752%, 74.208069%)" offset="0.707031"/><stop stop-opacity="1" stop-color="rgb(82.539368%, 49.081421%, 73.908997%)" offset="0.710938"/><stop stop-opacity="1" stop-color="rgb(82.240295%, 48.765564%, 73.609924%)" offset="0.714844"/><stop stop-opacity="1" stop-color="rgb(81.941223%, 48.451233%, 73.310852%)" offset="0.71875"/><stop stop-opacity="1" stop-color="rgb(81.642151%, 48.135376%, 73.01178%)" offset="0.722656"/><stop stop-opacity="1" stop-color="rgb(81.343079%, 47.821045%, 72.714233%)" offset="0.726563"/><stop stop-opacity="1" stop-color="rgb(81.044006%, 47.505188%, 72.415161%)" offset="0.730469"/><stop stop-opacity="1" stop-color="rgb(80.74646%, 47.190857%, 72.116089%)" offset="0.734375"/><stop stop-opacity="1" stop-color="rgb(80.447388%, 46.875%, 71.817017%)" offset="0.738281"/><stop stop-opacity="1" stop-color="rgb(80.148315%, 46.560669%, 71.517944%)" offset="0.742188"/><stop stop-opacity="1" stop-color="rgb(79.849243%, 46.244812%, 71.218872%)" offset="0.746094"/><stop stop-opacity="1" stop-color="rgb(79.550171%, 45.930481%, 70.9198%)" offset="0.75"/><stop stop-opacity="1" stop-color="rgb(79.251099%, 45.614624%, 70.620728%)" offset="0.753906"/><stop stop-opacity="1" stop-color="rgb(78.952026%, 45.300293%, 70.321655%)" offset="0.757813"/><stop stop-opacity="1" stop-color="rgb(78.652954%, 44.984436%, 70.022583%)" offset="0.761719"/><stop stop-opacity="1" stop-color="rgb(78.353882%, 44.670105%, 69.725037%)" offset="0.765625"/><stop stop-opacity="1" stop-color="rgb(78.05481%, 44.354248%, 69.425964%)" offset="0.769531"/><stop stop-opacity="1" stop-color="rgb(77.757263%, 44.039917%, 69.126892%)" offset="0.773438"/><stop stop-opacity="1" stop-color="rgb(77.458191%, 43.72406%, 68.82782%)" offset="0.777344"/><stop stop-opacity="1" stop-color="rgb(77.159119%, 43.409729%, 68.528748%)" offset="0.78125"/><stop stop-opacity="1" stop-color="rgb(76.860046%, 43.093872%, 68.229675%)" offset="0.785156"/><stop stop-opacity="1" stop-color="rgb(76.560974%, 42.779541%, 67.930603%)" offset="0.789063"/><stop stop-opacity="1" stop-color="rgb(76.261902%, 42.463684%, 67.631531%)" offset="0.792969"/><stop stop-opacity="1" stop-color="rgb(75.96283%, 42.149353%, 67.333984%)" offset="0.796875"/><stop stop-opacity="1" stop-color="rgb(75.663757%, 41.833496%, 67.034912%)" offset="0.800781"/><stop stop-opacity="1" stop-color="rgb(75.366211%, 41.519165%, 66.73584%)" offset="0.804688"/><stop stop-opacity="1" stop-color="rgb(75.067139%, 41.203308%, 66.436768%)" offset="0.808594"/><stop stop-opacity="1" stop-color="rgb(74.768066%, 40.888977%, 66.137695%)" offset="0.8125"/><stop stop-opacity="1" stop-color="rgb(74.468994%, 40.57312%, 65.838623%)" offset="0.816406"/><stop stop-opacity="1" stop-color="rgb(74.169922%, 40.258789%, 65.539551%)" offset="0.820313"/><stop stop-opacity="1" stop-color="rgb(73.87085%, 39.942932%, 65.240479%)" offset="0.824219"/><stop stop-opacity="1" stop-color="rgb(73.571777%, 39.628601%, 64.941406%)" offset="0.828125"/><stop stop-opacity="1" stop-color="rgb(73.272705%, 39.312744%, 64.642334%)" offset="0.832031"/><stop stop-opacity="1" stop-color="rgb(72.973633%, 38.998413%, 64.344788%)" offset="0.835938"/><stop stop-opacity="1" stop-color="rgb(72.674561%, 38.682556%, 64.045715%)" offset="0.839844"/><stop stop-opacity="1" stop-color="rgb(72.377014%, 38.368225%, 63.746643%)" offset="0.84375"/><stop stop-opacity="1" stop-color="rgb(72.077942%, 38.052368%, 63.447571%)" offset="0.847656"/><stop stop-opacity="1" stop-color="rgb(71.77887%, 37.736511%, 63.148499%)" offset="0.851562"/><stop stop-opacity="1" stop-color="rgb(71.479797%, 37.420654%, 62.849426%)" offset="0.855469"/><stop stop-opacity="1" stop-color="rgb(71.180725%, 37.106323%, 62.550354%)" offset="0.859375"/><stop stop-opacity="1" stop-color="rgb(70.881653%, 36.790466%, 62.251282%)" offset="0.863281"/><stop stop-opacity="1" stop-color="rgb(70.582581%, 36.476135%, 61.953735%)" offset="0.867188"/><stop stop-opacity="1" stop-color="rgb(70.283508%, 36.160278%, 61.654663%)" offset="0.871094"/><stop stop-opacity="1" stop-color="rgb(69.984436%, 35.845947%, 61.355591%)" offset="0.875"/><stop stop-opacity="1" stop-color="rgb(69.685364%, 35.53009%, 61.056519%)" offset="0.878906"/><stop stop-opacity="1" stop-color="rgb(69.387817%, 35.215759%, 60.757446%)" offset="0.882813"/><stop stop-opacity="1" stop-color="rgb(69.088745%, 34.899902%, 60.458374%)" offset="0.886719"/><stop stop-opacity="1" stop-color="rgb(68.789673%, 34.585571%, 60.159302%)" offset="0.890625"/><stop stop-opacity="1" stop-color="rgb(68.490601%, 34.269714%, 59.860229%)" offset="0.894531"/><stop stop-opacity="1" stop-color="rgb(68.191528%, 33.955383%, 59.561157%)" offset="0.898438"/><stop stop-opacity="1" stop-color="rgb(67.892456%, 33.639526%, 59.262085%)" offset="0.902344"/><stop stop-opacity="1" stop-color="rgb(67.593384%, 33.325195%, 58.964539%)" offset="0.90625"/><stop stop-opacity="1" stop-color="rgb(67.294312%, 33.009338%, 58.665466%)" offset="0.910156"/><stop stop-opacity="1" stop-color="rgb(66.996765%, 32.695007%, 58.366394%)" offset="0.914062"/><stop stop-opacity="1" stop-color="rgb(66.697693%, 32.37915%, 58.067322%)" offset="0.917969"/><stop stop-opacity="1" stop-color="rgb(66.398621%, 32.064819%, 57.76825%)" offset="0.921875"/><stop stop-opacity="1" stop-color="rgb(66.099548%, 31.748962%, 57.469177%)" offset="0.925781"/><stop stop-opacity="1" stop-color="rgb(65.800476%, 31.434631%, 57.170105%)" offset="0.929688"/><stop stop-opacity="1" stop-color="rgb(65.501404%, 31.118774%, 56.871033%)" offset="0.933594"/><stop stop-opacity="1" stop-color="rgb(65.202332%, 30.804443%, 56.57196%)" offset="0.9375"/><stop stop-opacity="1" stop-color="rgb(64.903259%, 30.488586%, 56.272888%)" offset="0.941406"/><stop stop-opacity="1" stop-color="rgb(64.604187%, 30.174255%, 55.975342%)" offset="0.945313"/><stop stop-opacity="1" stop-color="rgb(64.305115%, 29.858398%, 55.67627%)" offset="0.949219"/><stop stop-opacity="1" stop-color="rgb(64.007568%, 29.544067%, 55.377197%)" offset="0.953125"/><stop stop-opacity="1" stop-color="rgb(63.708496%, 29.22821%, 55.078125%)" offset="0.957031"/><stop stop-opacity="1" stop-color="rgb(63.409424%, 28.913879%, 54.779053%)" offset="0.960938"/><stop stop-opacity="1" stop-color="rgb(63.273621%, 28.770447%, 54.64325%)" offset="0.96875"/><stop stop-opacity="1" stop-color="rgb(63.139343%, 28.62854%, 54.508972%)" offset="1"/></linearGradient><clipPath id="b7a65ca648"><rect x="0" width="1440" y="0" height="379"/></clipPath><clipPath id="a22ed680dd"><path d="M 0 0.867188 L 1440 0.867188 L 1440 379 L 0 379 Z M 0 0.867188 " clip-rule="nonzero"/></clipPath><clipPath id="229f3c56f9"><rect x="0" width="1440" y="0" height="379"/></clipPath><clipPath id="e8c2c508d4"><rect x="0" width="1440" y="0" height="379"/></clipPath><mask id="2dcabfab05"><g filter="url(#edb46555a4)"><g transform="matrix(1, 0, 0, 1, 0, 0.000000000000056843)"><g clip-path="url(#e8c2c508d4)"><g clip-path="url(#a22ed680dd)"><g transform="matrix(1, 0, 0, 1, 0, 0.000000000000056843)"><g clip-path="url(#229f3c56f9)"><g fill="#000000" fill-opacity="1"><g transform="translate(19.755576, 292.507188)"><g><path d="M 59.96875 -75.421875 C 61.1875 -75.421875 62.195312 -74.96875 63 -74.0625 C 63.8125 -73.164062 64.21875 -72.070312 64.21875 -70.78125 C 64.21875 -69.6875 63.894531 -68.625 63.25 -67.59375 L 37.265625 -27.515625 L 37.265625 -5.015625 C 37.265625 -3.597656 36.78125 -2.40625 35.8125 -1.4375 C 34.851562 -0.476562 33.664062 0 32.25 0 C 30.894531 0 29.734375 -0.476562 28.765625 -1.4375 C 27.804688 -2.40625 27.328125 -3.597656 27.328125 -5.015625 L 27.328125 -27.515625 L 1.546875 -67.59375 C 0.835938 -68.6875 0.484375 -69.71875 0.484375 -70.6875 C 0.484375 -72.039062 0.976562 -73.164062 1.96875 -74.0625 C 2.96875 -74.96875 4.144531 -75.421875 5.5 -75.421875 C 6.53125 -75.421875 7.367188 -75.191406 8.015625 -74.734375 C 8.660156 -74.285156 9.304688 -73.578125 9.953125 -72.609375 L 32.546875 -36.796875 L 55.515625 -73 C 56.546875 -74.613281 58.03125 -75.421875 59.96875 -75.421875 Z M 59.96875 -75.421875 "/></g></g></g><g fill="#000000" fill-opacity="1"><g transform="translate(103.959134, 292.507188)"><g><path d="M 14.671875 0 C 13.253906 0 12.0625 -0.476562 11.09375 -1.4375 C 10.132812 -2.40625 9.65625 -3.597656 9.65625 -5.015625 L 9.65625 -70.390625 C 9.65625 -71.867188 10.132812 -73.078125 11.09375 -74.015625 C 12.0625 -74.953125 13.253906 -75.421875 14.671875 -75.421875 L 58.328125 -75.421875 C 59.804688 -75.421875 60.992188 -74.984375 61.890625 -74.109375 C 62.796875 -73.242188 63.25 -72.101562 63.25 -70.6875 C 63.25 -69.332031 62.796875 -68.234375 61.890625 -67.390625 C 60.992188 -66.554688 59.804688 -66.140625 58.328125 -66.140625 L 19.703125 -66.140625 L 19.703125 -42.6875 L 47.40625 -42.6875 C 48.820312 -42.6875 50 -42.25 50.9375 -41.375 C 51.875 -40.507812 52.34375 -39.398438 52.34375 -38.046875 C 52.34375 -36.691406 51.875 -35.578125 50.9375 -34.703125 C 50 -33.835938 48.820312 -33.40625 47.40625 -33.40625 L 19.703125 -33.40625 L 19.703125 -9.265625 L 58.328125 -9.265625 C 59.804688 -9.265625 60.992188 -8.847656 61.890625 -8.015625 C 62.796875 -7.179688 63.25 -6.085938 63.25 -4.734375 C 63.25 -3.316406 62.796875 -2.171875 61.890625 -1.296875 C 60.992188 -0.429688 59.804688 0 58.328125 0 Z M 14.671875 0 "/></g></g></g><g fill="#000000" fill-opacity="1"><g transform="translate(191.059489, 292.507188)"><g><path d="M 66.046875 -7.046875 C 66.367188 -6.210938 66.53125 -5.503906 66.53125 -4.921875 C 66.53125 -3.566406 66.046875 -2.40625 65.078125 -1.4375 C 64.117188 -0.476562 62.929688 0 61.515625 0 C 60.546875 0 59.625 -0.269531 58.75 -0.8125 C 57.882812 -1.363281 57.257812 -2.125 56.875 -3.09375 L 51.46875 -16.609375 L 16.796875 -16.609375 L 11.296875 -3.09375 C 10.847656 -2.125 10.203125 -1.363281 9.359375 -0.8125 C 8.523438 -0.269531 7.625 0 6.65625 0 C 5.238281 0 4.0625 -0.5 3.125 -1.5 C 2.195312 -2.5 1.734375 -3.671875 1.734375 -5.015625 C 1.734375 -5.660156 1.894531 -6.398438 2.21875 -7.234375 L 29.359375 -72.03125 C 30.316406 -74.289062 31.894531 -75.421875 34.09375 -75.421875 C 36.40625 -75.421875 37.976562 -74.289062 38.8125 -72.03125 Z M 20.1875 -24.90625 L 48.09375 -24.90625 L 34.28125 -59.296875 Z M 20.1875 -24.90625 "/></g></g></g><g fill="#000000" fill-opacity="1"><g transform="translate(278.449531, 292.507188)"><g><path d="M 58.609375 -7.71875 C 59.253906 -6.695312 59.578125 -5.632812 59.578125 -4.53125 C 59.578125 -3.25 59.140625 -2.171875 58.265625 -1.296875 C 57.398438 -0.429688 56.226562 0 54.75 0 C 52.882812 0 51.4375 -0.800781 50.40625 -2.40625 L 33.796875 -29.0625 L 19.703125 -29.0625 L 19.703125 -5.015625 C 19.703125 -3.597656 19.234375 -2.40625 18.296875 -1.4375 C 17.359375 -0.476562 16.148438 0 14.671875 0 C 13.253906 0 12.0625 -0.476562 11.09375 -1.4375 C 10.132812 -2.40625 9.65625 -3.597656 9.65625 -5.015625 L 9.65625 -70.390625 C 9.65625 -71.867188 10.132812 -73.078125 11.09375 -74.015625 C 12.0625 -74.953125 13.253906 -75.421875 14.671875 -75.421875 L 32.0625 -75.421875 C 36.820312 -75.421875 41.082031 -74.421875 44.84375 -72.421875 C 48.613281 -70.421875 51.546875 -67.617188 53.640625 -64.015625 C 55.734375 -60.410156 56.78125 -56.289062 56.78125 -51.65625 C 56.78125 -47.09375 55.617188 -43.039062 53.296875 -39.5 C 50.984375 -35.957031 47.832031 -33.285156 43.84375 -31.484375 Z M 32.0625 -38.328125 C 36.4375 -38.328125 40.039062 -39.566406 42.875 -42.046875 C 45.707031 -44.523438 47.125 -47.726562 47.125 -51.65625 C 47.125 -55.90625 45.707031 -59.378906 42.875 -62.078125 C 40.039062 -64.785156 36.4375 -66.140625 32.0625 -66.140625 L 19.703125 -66.140625 L 19.703125 -38.328125 Z M 32.0625 -38.328125 "/></g></g></g><g fill="#000000" fill-opacity="1"><g transform="translate(358.983823, 292.507188)"><g><path d="M 33.609375 0.96875 C 27.359375 0.96875 21.675781 -0.445312 16.5625 -3.28125 C 11.445312 -6.113281 7.921875 -9.816406 5.984375 -14.390625 C 5.660156 -15.160156 5.5 -15.800781 5.5 -16.3125 C 5.5 -17.28125 5.851562 -18.132812 6.5625 -18.875 C 7.269531 -19.613281 8.238281 -20.113281 9.46875 -20.375 C 9.65625 -20.4375 9.972656 -20.46875 10.421875 -20.46875 C 11.453125 -20.46875 12.4375 -20.160156 13.375 -19.546875 C 14.3125 -18.941406 15.003906 -18.125 15.453125 -17.09375 C 16.609375 -14.582031 18.890625 -12.457031 22.296875 -10.71875 C 25.710938 -8.976562 29.484375 -8.109375 33.609375 -8.109375 C 38.429688 -8.109375 42.515625 -9.21875 45.859375 -11.4375 C 49.210938 -13.664062 50.890625 -16.707031 50.890625 -20.5625 C 50.890625 -24.238281 49.472656 -27.378906 46.640625 -29.984375 C 43.804688 -32.585938 39.492188 -34.179688 33.703125 -34.765625 C 25.710938 -35.535156 19.429688 -37.867188 14.859375 -41.765625 C 10.296875 -45.660156 8.015625 -50.535156 8.015625 -56.390625 C 8.015625 -60.515625 9.1875 -64.070312 11.53125 -67.0625 C 13.882812 -70.050781 17.101562 -72.332031 21.1875 -73.90625 C 25.28125 -75.488281 29.867188 -76.28125 34.953125 -76.28125 C 40.492188 -76.28125 45.160156 -75.15625 48.953125 -72.90625 C 52.753906 -70.65625 55.972656 -67.4375 58.609375 -63.25 C 59.378906 -62.019531 59.765625 -60.859375 59.765625 -59.765625 C 59.765625 -58.347656 59.125 -57.191406 57.84375 -56.296875 C 57.132812 -55.847656 56.296875 -55.625 55.328125 -55.625 C 54.359375 -55.625 53.457031 -55.863281 52.625 -56.34375 C 51.789062 -56.820312 51.144531 -57.484375 50.6875 -58.328125 C 48.957031 -61.222656 46.785156 -63.425781 44.171875 -64.9375 C 41.566406 -66.445312 38.269531 -67.203125 34.28125 -67.203125 C 29.382812 -67.203125 25.421875 -66.253906 22.390625 -64.359375 C 19.367188 -62.460938 17.859375 -59.710938 17.859375 -56.109375 C 17.859375 -52.753906 19.207031 -49.953125 21.90625 -47.703125 C 24.613281 -45.453125 29.445312 -43.972656 36.40625 -43.265625 C 44.125 -42.484375 50.109375 -40.144531 54.359375 -36.25 C 58.609375 -32.363281 60.734375 -27.234375 60.734375 -20.859375 C 60.734375 -16.222656 59.476562 -12.242188 56.96875 -8.921875 C 54.457031 -5.609375 51.125 -3.128906 46.96875 -1.484375 C 42.820312 0.148438 38.367188 0.96875 33.609375 0.96875 Z M 33.609375 0.96875 "/></g></g></g><g fill="#000000" fill-opacity="1"><g transform="translate(444.92545, 292.507188)"><g/></g></g><g fill="#000000" fill-opacity="1"><g transform="translate(492.725932, 292.507188)"><g><path d="M 44.515625 0.96875 C 37.046875 0.96875 30.398438 -0.671875 24.578125 -3.953125 C 18.753906 -7.242188 14.234375 -11.832031 11.015625 -17.71875 C 7.796875 -23.601562 6.1875 -30.28125 6.1875 -37.75 C 6.1875 -45.21875 7.796875 -51.878906 11.015625 -57.734375 C 14.234375 -63.597656 18.753906 -68.171875 24.578125 -71.453125 C 30.398438 -74.734375 37.046875 -76.375 44.515625 -76.375 C 51.921875 -76.375 58.535156 -74.734375 64.359375 -71.453125 C 70.179688 -68.171875 74.71875 -63.597656 77.96875 -57.734375 C 81.21875 -51.878906 82.84375 -45.21875 82.84375 -37.75 C 82.84375 -30.28125 81.21875 -23.601562 77.96875 -17.71875 C 74.71875 -11.832031 70.195312 -7.242188 64.40625 -3.953125 C 58.613281 -0.671875 51.984375 0.96875 44.515625 0.96875 Z M 44.515625 -8.109375 C 49.984375 -8.109375 54.90625 -9.410156 59.28125 -12.015625 C 63.664062 -14.628906 67.078125 -18.1875 69.515625 -22.6875 C 71.960938 -27.195312 73.1875 -32.21875 73.1875 -37.75 C 73.1875 -43.289062 71.960938 -48.3125 69.515625 -52.8125 C 67.078125 -57.320312 63.679688 -60.863281 59.328125 -63.4375 C 54.984375 -66.007812 50.046875 -67.296875 44.515625 -67.296875 C 38.972656 -67.296875 34.03125 -66.007812 29.6875 -63.4375 C 25.34375 -60.863281 21.945312 -57.320312 19.5 -52.8125 C 17.0625 -48.3125 15.84375 -43.289062 15.84375 -37.75 C 15.84375 -32.21875 17.0625 -27.195312 19.5 -22.6875 C 21.945312 -18.1875 25.359375 -14.628906 29.734375 -12.015625 C 34.117188 -9.410156 39.046875 -8.109375 44.515625 -8.109375 Z M 44.515625 -8.109375 "/></g></g></g><g fill="#000000" fill-opacity="1"><g transform="translate(601.16604, 292.507188)"><g><path d="M 8.59375 0 C 7.175781 0 5.984375 -0.476562 5.015625 -1.4375 C 4.054688 -2.40625 3.578125 -3.597656 3.578125 -5.015625 L 3.578125 -70.390625 C 3.578125 -71.867188 4.054688 -73.078125 5.015625 -74.015625 C 5.984375 -74.953125 7.175781 -75.421875 8.59375 -75.421875 L 52.234375 -75.421875 C 53.722656 -75.421875 54.914062 -74.984375 55.8125 -74.109375 C 56.71875 -73.242188 57.171875 -72.101562 57.171875 -70.6875 C 57.171875 -69.332031 56.71875 -68.234375 55.8125 -67.390625 C 54.914062 -66.554688 53.722656 -66.140625 52.234375 -66.140625 L 13.609375 -66.140625 L 13.609375 -42.6875 L 41.328125 -42.6875 C 42.742188 -42.6875 43.914062 -42.25 44.84375 -41.375 C 45.78125 -40.507812 46.25 -39.398438 46.25 -38.046875 C 46.25 -36.691406 45.78125 -35.578125 44.84375 -34.703125 C 43.914062 -33.835938 42.742188 -33.40625 41.328125 -33.40625 L 13.609375 -33.40625 L 13.609375 -5.015625 C 13.609375 -3.597656 13.125 -2.40625 12.15625 -1.4375 C 11.195312 -0.476562 10.007812 0 8.59375 0 Z M 8.59375 0 "/></g></g></g><g fill="#000000" fill-opacity="1"><g transform="translate(681.024404, 292.507188)"><g/></g></g><g fill="#000000" fill-opacity="1"><g transform="translate(728.824851, 292.507188)"><g><path d="M 66.046875 -7.046875 C 66.367188 -6.210938 66.53125 -5.503906 66.53125 -4.921875 C 66.53125 -3.566406 66.046875 -2.40625 65.078125 -1.4375 C 64.117188 -0.476562 62.929688 0 61.515625 0 C 60.546875 0 59.625 -0.269531 58.75 -0.8125 C 57.882812 -1.363281 57.257812 -2.125 56.875 -3.09375 L 51.46875 -16.609375 L 16.796875 -16.609375 L 11.296875 -3.09375 C 10.847656 -2.125 10.203125 -1.363281 9.359375 -0.8125 C 8.523438 -0.269531 7.625 0 6.65625 0 C 5.238281 0 4.0625 -0.5 3.125 -1.5 C 2.195312 -2.5 1.734375 -3.671875 1.734375 -5.015625 C 1.734375 -5.660156 1.894531 -6.398438 2.21875 -7.234375 L 29.359375 -72.03125 C 30.316406 -74.289062 31.894531 -75.421875 34.09375 -75.421875 C 36.40625 -75.421875 37.976562 -74.289062 38.8125 -72.03125 Z M 20.1875 -24.90625 L 48.09375 -24.90625 L 34.28125 -59.296875 Z M 20.1875 -24.90625 "/></g></g></g><g fill="#000000" fill-opacity="1"><g transform="translate(816.214892, 292.507188)"><g><path d="M 14.671875 0 C 13.253906 0 12.0625 -0.476562 11.09375 -1.4375 C 10.132812 -2.40625 9.65625 -3.597656 9.65625 -5.015625 L 9.65625 -70.390625 C 9.65625 -71.867188 10.132812 -73.078125 11.09375 -74.015625 C 12.0625 -74.953125 13.253906 -75.421875 14.671875 -75.421875 L 32.15625 -75.421875 C 39.425781 -75.421875 45.894531 -73.8125 51.5625 -70.59375 C 57.226562 -67.375 61.640625 -62.914062 64.796875 -57.21875 C 67.953125 -51.519531 69.53125 -45.03125 69.53125 -37.75 C 69.53125 -30.476562 67.953125 -23.976562 64.796875 -18.25 C 61.640625 -12.519531 57.226562 -8.046875 51.5625 -4.828125 C 45.894531 -1.609375 39.425781 0 32.15625 0 Z M 32.15625 -8.890625 C 37.5 -8.890625 42.273438 -10.109375 46.484375 -12.546875 C 50.703125 -14.992188 53.988281 -18.421875 56.34375 -22.828125 C 58.695312 -27.242188 59.875 -32.21875 59.875 -37.75 C 59.875 -43.289062 58.695312 -48.25 56.34375 -52.625 C 53.988281 -57 50.703125 -60.410156 46.484375 -62.859375 C 42.273438 -65.304688 37.5 -66.53125 32.15625 -66.53125 L 19.703125 -66.53125 L 19.703125 -8.890625 Z M 32.15625 -8.890625 "/></g></g></g><g fill="#000000" fill-opacity="1"><g transform="translate(911.329727, 292.507188)"><g><path d="M 44.515625 0.96875 C 37.046875 0.96875 30.398438 -0.671875 24.578125 -3.953125 C 18.753906 -7.242188 14.234375 -11.832031 11.015625 -17.71875 C 7.796875 -23.601562 6.1875 -30.28125 6.1875 -37.75 C 6.1875 -45.21875 7.796875 -51.878906 11.015625 -57.734375 C 14.234375 -63.597656 18.753906 -68.171875 24.578125 -71.453125 C 30.398438 -74.734375 37.046875 -76.375 44.515625 -76.375 C 51.921875 -76.375 58.535156 -74.734375 64.359375 -71.453125 C 70.179688 -68.171875 74.71875 -63.597656 77.96875 -57.734375 C 81.21875 -51.878906 82.84375 -45.21875 82.84375 -37.75 C 82.84375 -30.28125 81.21875 -23.601562 77.96875 -17.71875 C 74.71875 -11.832031 70.195312 -7.242188 64.40625 -3.953125 C 58.613281 -0.671875 51.984375 0.96875 44.515625 0.96875 Z M 44.515625 -8.109375 C 49.984375 -8.109375 54.90625 -9.410156 59.28125 -12.015625 C 63.664062 -14.628906 67.078125 -18.1875 69.515625 -22.6875 C 71.960938 -27.195312 73.1875 -32.21875 73.1875 -37.75 C 73.1875 -43.289062 71.960938 -48.3125 69.515625 -52.8125 C 67.078125 -57.320312 63.679688 -60.863281 59.328125 -63.4375 C 54.984375 -66.007812 50.046875 -67.296875 44.515625 -67.296875 C 38.972656 -67.296875 34.03125 -66.007812 29.6875 -63.4375 C 25.34375 -60.863281 21.945312 -57.320312 19.5 -52.8125 C 17.0625 -48.3125 15.84375 -43.289062 15.84375 -37.75 C 15.84375 -32.21875 17.0625 -27.195312 19.5 -22.6875 C 21.945312 -18.1875 25.359375 -14.628906 29.734375 -12.015625 C 34.117188 -9.410156 39.046875 -8.109375 44.515625 -8.109375 Z M 44.515625 -8.109375 "/></g></g></g><g fill="#000000" fill-opacity="1"><g transform="translate(1019.769836, 292.507188)"><g><path d="M 14.671875 0 C 13.253906 0 12.0625 -0.476562 11.09375 -1.4375 C 10.132812 -2.40625 9.65625 -3.597656 9.65625 -5.015625 L 9.65625 -70.390625 C 9.65625 -71.867188 10.132812 -73.078125 11.09375 -74.015625 C 12.0625 -74.953125 13.253906 -75.421875 14.671875 -75.421875 L 33.984375 -75.421875 C 38.753906 -75.421875 43.019531 -74.359375 46.78125 -72.234375 C 50.550781 -70.109375 53.476562 -67.144531 55.5625 -63.34375 C 57.65625 -59.539062 58.703125 -55.226562 58.703125 -50.40625 C 58.703125 -45.707031 57.65625 -41.519531 55.5625 -37.84375 C 53.476562 -34.175781 50.550781 -31.3125 46.78125 -29.25 C 43.019531 -27.195312 38.753906 -26.171875 33.984375 -26.171875 L 19.703125 -26.171875 L 19.703125 -5.015625 C 19.703125 -3.597656 19.234375 -2.40625 18.296875 -1.4375 C 17.359375 -0.476562 16.148438 0 14.671875 0 Z M 33.984375 -35.4375 C 38.367188 -35.4375 41.972656 -36.835938 44.796875 -39.640625 C 47.628906 -42.441406 49.046875 -46.03125 49.046875 -50.40625 C 49.046875 -54.976562 47.628906 -58.742188 44.796875 -61.703125 C 41.972656 -64.660156 38.367188 -66.140625 33.984375 -66.140625 L 19.703125 -66.140625 L 19.703125 -35.4375 Z M 33.984375 -35.4375 "/></g></g></g><g fill="#000000" fill-opacity="1"><g transform="translate(1099.435086, 292.507188)"><g><path d="M 57.75 -75.421875 C 59.09375 -75.421875 60.195312 -74.984375 61.0625 -74.109375 C 61.9375 -73.242188 62.375 -72.132812 62.375 -70.78125 C 62.375 -69.425781 61.9375 -68.3125 61.0625 -67.4375 C 60.195312 -66.570312 59.09375 -66.140625 57.75 -66.140625 L 36.984375 -66.140625 L 36.984375 -5.015625 C 36.984375 -3.597656 36.5 -2.40625 35.53125 -1.4375 C 34.570312 -0.476562 33.382812 0 31.96875 0 C 30.550781 0 29.359375 -0.476562 28.390625 -1.4375 C 27.421875 -2.40625 26.9375 -3.597656 26.9375 -5.015625 L 26.9375 -66.140625 L 6.078125 -66.140625 C 4.734375 -66.140625 3.625 -66.570312 2.75 -67.4375 C 1.882812 -68.3125 1.453125 -69.425781 1.453125 -70.78125 C 1.453125 -72.132812 1.882812 -73.242188 2.75 -74.109375 C 3.625 -74.984375 4.734375 -75.421875 6.078125 -75.421875 Z M 57.75 -75.421875 "/></g></g></g><g fill="#000000" fill-opacity="1"><g transform="translate(1182.76955, 292.507188)"><g><path d="M 14.671875 0 C 13.253906 0 12.0625 -0.476562 11.09375 -1.4375 C 10.132812 -2.40625 9.65625 -3.597656 9.65625 -5.015625 L 9.65625 -70.390625 C 9.65625 -71.867188 10.132812 -73.078125 11.09375 -74.015625 C 12.0625 -74.953125 13.253906 -75.421875 14.671875 -75.421875 C 16.148438 -75.421875 17.359375 -74.953125 18.296875 -74.015625 C 19.234375 -73.078125 19.703125 -71.867188 19.703125 -70.390625 L 19.703125 -5.015625 C 19.703125 -3.597656 19.234375 -2.40625 18.296875 -1.4375 C 17.359375 -0.476562 16.148438 0 14.671875 0 Z M 14.671875 0 "/></g></g></g><g fill="#000000" fill-opacity="1"><g transform="translate(1231.63229, 292.507188)"><g><path d="M 44.515625 0.96875 C 37.046875 0.96875 30.398438 -0.671875 24.578125 -3.953125 C 18.753906 -7.242188 14.234375 -11.832031 11.015625 -17.71875 C 7.796875 -23.601562 6.1875 -30.28125 6.1875 -37.75 C 6.1875 -45.21875 7.796875 -51.878906 11.015625 -57.734375 C 14.234375 -63.597656 18.753906 -68.171875 24.578125 -71.453125 C 30.398438 -74.734375 37.046875 -76.375 44.515625 -76.375 C 51.921875 -76.375 58.535156 -74.734375 64.359375 -71.453125 C 70.179688 -68.171875 74.71875 -63.597656 77.96875 -57.734375 C 81.21875 -51.878906 82.84375 -45.21875 82.84375 -37.75 C 82.84375 -30.28125 81.21875 -23.601562 77.96875 -17.71875 C 74.71875 -11.832031 70.195312 -7.242188 64.40625 -3.953125 C 58.613281 -0.671875 51.984375 0.96875 44.515625 0.96875 Z M 44.515625 -8.109375 C 49.984375 -8.109375 54.90625 -9.410156 59.28125 -12.015625 C 63.664062 -14.628906 67.078125 -18.1875 69.515625 -22.6875 C 71.960938 -27.195312 73.1875 -32.21875 73.1875 -37.75 C 73.1875 -43.289062 71.960938 -48.3125 69.515625 -52.8125 C 67.078125 -57.320312 63.679688 -60.863281 59.328125 -63.4375 C 54.984375 -66.007812 50.046875 -67.296875 44.515625 -67.296875 C 38.972656 -67.296875 34.03125 -66.007812 29.6875 -63.4375 C 25.34375 -60.863281 21.945312 -57.320312 19.5 -52.8125 C 17.0625 -48.3125 15.84375 -43.289062 15.84375 -37.75 C 15.84375 -32.21875 17.0625 -27.195312 19.5 -22.6875 C 21.945312 -18.1875 25.359375 -14.628906 29.734375 -12.015625 C 34.117188 -9.410156 39.046875 -8.109375 44.515625 -8.109375 Z M 44.515625 -8.109375 "/></g></g></g><g fill="#000000" fill-opacity="1"><g transform="translate(1340.07233, 292.507188)"><g><path d="M 14.578125 0 C 13.160156 0 11.984375 -0.460938 11.046875 -1.390625 C 10.117188 -2.328125 9.65625 -3.535156 9.65625 -5.015625 L 9.65625 -70.390625 C 9.65625 -71.867188 10.117188 -73.078125 11.046875 -74.015625 C 11.984375 -74.953125 13.160156 -75.421875 14.578125 -75.421875 C 15.285156 -75.421875 15.992188 -75.242188 16.703125 -74.890625 C 17.410156 -74.535156 17.988281 -74.097656 18.4375 -73.578125 L 60.546875 -17.578125 L 60.546875 -70.390625 C 60.546875 -71.867188 61.023438 -73.078125 61.984375 -74.015625 C 62.953125 -74.953125 64.144531 -75.421875 65.5625 -75.421875 C 66.976562 -75.421875 68.148438 -74.953125 69.078125 -74.015625 C 70.015625 -73.078125 70.484375 -71.867188 70.484375 -70.390625 L 70.484375 -5.015625 C 70.484375 -3.535156 70.015625 -2.328125 69.078125 -1.390625 C 68.148438 -0.460938 66.976562 0 65.5625 0 C 64.851562 0 64.128906 -0.144531 63.390625 -0.4375 C 62.648438 -0.726562 62.085938 -1.160156 61.703125 -1.734375 L 19.609375 -57.75 L 19.609375 -5.015625 C 19.609375 -3.597656 19.140625 -2.40625 18.203125 -1.4375 C 17.265625 -0.476562 16.054688 0 14.578125 0 Z M 14.578125 0 "/></g></g></g></g></g></g></g></g></g></mask><clipPath id="5857fc9c1d"><path d="M 0 14.429688 L 1440 14.429688 L 1440 379 L 0 379 Z M 0 14.429688 " clip-rule="nonzero"/></clipPath><clipPath id="dc89e4884b"><rect x="0" width="1440" y="0" height="379"/></clipPath><clipPath id="4ff15de709"><rect x="0" width="1440" y="0" height="379"/></clipPath><clipPath id="311269a698"><rect x="0" width="1440" y="0" height="379"/></clipPath></defs><g clip-path="url(#aaff98f5e8)"><path fill="#672543" d="M 365.402344 615.84375 C 399.996094 615.84375 434.589844 615.8125 469.183594 615.757812 C 478.972656 615.742188 488.761719 615.570312 498.515625 614.613281 C 499.09375 613.964844 499.847656 613.714844 500.6875 613.722656 C 503.28125 613.738281 505.878906 613.773438 508.472656 613.800781 C 508.46875 613.800781 508.46875 613.800781 508.46875 613.800781 C 508.46875 613.800781 508.472656 613.800781 508.472656 613.800781 C 509.394531 613.753906 510.320312 613.703125 511.246094 613.65625 C 511.261719 612.785156 510.894531 612.113281 510.179688 611.628906 C 510.179688 611.628906 510.179688 611.628906 510.175781 611.628906 C 509.230469 611.667969 508.285156 611.710938 507.339844 611.75 C 506.800781 612.40625 506.085938 612.699219 505.257812 612.6875 C 500.664062 612.636719 496.066406 613.070312 491.472656 612.578125 C 491.476562 612.578125 491.476562 612.578125 491.476562 612.578125 C 491.476562 612.578125 491.472656 612.578125 491.472656 612.578125 C 477.433594 612.703125 463.394531 612.933594 449.355469 612.9375 C 311.390625 612.945312 173.425781 612.917969 35.457031 612.890625 C 33.667969 612.890625 31.875 612.773438 30.085938 612.710938 C 30.085938 613.691406 30.085938 614.671875 30.085938 615.652344 C 32.039062 615.714844 33.992188 615.832031 35.945312 615.832031 C 145.765625 615.84375 255.585938 615.851562 365.402344 615.84375 Z M 365.402344 615.84375 " fill-opacity="1" fill-rule="nonzero"/></g><g clip-path="url(#319a5b5421)"><path fill="#844878" d="M 1171.402344 613.730469 C 1104.960938 613.738281 1038.519531 613.75 972.078125 613.753906 C 967.179688 613.753906 962.28125 613.699219 957.386719 613.664062 C 956.25 613.65625 955.074219 613.769531 954.214844 612.773438 C 952.964844 612.71875 951.710938 612.667969 950.460938 612.613281 C 950.460938 612.613281 950.457031 612.613281 950.457031 612.613281 C 950.457031 612.613281 950.457031 612.613281 950.460938 612.613281 C 948.53125 612.699219 946.601562 612.785156 944.363281 612.886719 C 945.105469 614.121094 946.832031 613.4375 947.347656 614.597656 C 948.910156 614.667969 950.472656 614.738281 952.035156 614.8125 C 954.417969 614.738281 956.863281 614.070312 959.097656 615.523438 C 965.457031 615.679688 971.8125 615.976562 978.171875 615.976562 C 1120.460938 615.976562 1262.75 615.945312 1405.039062 615.90625 C 1406.660156 615.90625 1408.285156 615.742188 1409.90625 615.652344 C 1409.90625 615 1409.90625 614.347656 1409.90625 613.691406 C 1330.40625 613.703125 1250.90625 613.71875 1171.402344 613.730469 Z M 1171.402344 613.730469 " fill-opacity="1" fill-rule="nonzero"/></g><path fill="#d6bddf" d="M 1044.75 612.914062 C 1015.058594 612.910156 985.359375 613.34375 955.667969 612.617188 C 955.183594 612.605469 954.699219 612.71875 954.214844 612.773438 C 955.074219 613.765625 956.25 613.65625 957.386719 613.664062 C 962.28125 613.699219 967.179688 613.75 972.078125 613.75 C 1038.519531 613.75 1104.960938 613.738281 1171.402344 613.730469 C 1250.902344 613.71875 1330.40625 613.703125 1409.90625 613.691406 C 1409.90625 613.363281 1409.90625 613.039062 1409.90625 612.710938 C 1407.625 612.757812 1405.34375 612.84375 1403.058594 612.84375 C 1283.625 612.878906 1164.1875 612.933594 1044.75 612.914062 Z M 1044.75 612.914062 " fill-opacity="1" fill-rule="nonzero"/><g clip-path="url(#860190187d)"><path fill="#a52b7f" d="M 536.847656 610.609375 C 536.472656 610.917969 536.121094 611.25 535.757812 611.566406 C 539.546875 611.914062 543.210938 610.886719 546.90625 610.414062 C 554.488281 609.4375 562.015625 608.054688 569.574219 606.890625 C 579.382812 605.378906 589.117188 603.445312 598.796875 601.273438 C 619.648438 596.597656 640.152344 590.703125 660.167969 583.199219 C 677.425781 576.730469 694.476562 569.738281 710.898438 561.3125 C 715.976562 558.707031 721.097656 556.164062 726.03125 553.292969 C 728.824219 551.667969 731.125 551.785156 733.695312 553.566406 C 735.425781 554.769531 737.378906 555.664062 739.261719 556.640625 C 750.847656 562.660156 762.605469 568.324219 774.648438 573.378906 C 785.019531 577.734375 795.355469 582.179688 806.046875 585.730469 C 815.636719 588.917969 825.199219 592.179688 834.890625 595.054688 C 849.890625 599.507812 865.113281 603.007812 880.484375 605.855469 C 891.359375 607.871094 902.253906 609.8125 913.199219 611.402344 C 917.03125 611.957031 920.882812 612.96875 924.832031 612.582031 C 924.476562 611.648438 924.175781 610.761719 925.742188 610.753906 C 927.433594 610.746094 929.128906 610.691406 930.820312 610.660156 C 927.628906 609.273438 924.136719 609.476562 920.800781 608.859375 C 913.757812 607.550781 906.625 606.707031 899.597656 605.328125 C 889.53125 603.355469 879.574219 600.921875 869.667969 598.199219 C 845.21875 591.484375 821.636719 582.515625 798.746094 571.660156 C 789.746094 567.390625 780.945312 562.742188 772.246094 557.890625 C 764.980469 553.832031 757.683594 549.824219 750.691406 545.300781 C 749.464844 544.503906 748.269531 543.652344 747.121094 542.742188 C 746.726562 542.429688 746.722656 541.808594 747.179688 541.480469 C 748.371094 540.625 749.585938 539.800781 750.835938 539.039062 C 760.039062 533.429688 768.957031 527.386719 777.734375 521.144531 C 788.910156 513.199219 799.609375 504.636719 810.175781 495.894531 C 820.242188 487.570312 830.050781 478.953125 839.519531 469.972656 C 852.074219 458.0625 864.292969 445.8125 875.984375 433.027344 C 883.035156 425.3125 890.070312 417.585938 896.746094 409.558594 C 906.03125 398.394531 915.074219 387.039062 923.773438 375.394531 C 941.683594 351.410156 957.792969 326.332031 971.265625 299.566406 C 980.691406 280.847656 988.222656 261.457031 993.097656 241.050781 C 995.261719 231.992188 996.574219 222.789062 997.164062 213.542969 C 998.039062 199.839844 997.351562 186.1875 994.523438 172.667969 C 991.1875 156.710938 985.664062 141.621094 977.082031 127.765625 C 968.148438 113.34375 957.039062 100.804688 943.324219 90.695312 C 933.839844 83.707031 923.878906 77.550781 912.941406 73.015625 C 905.695312 70.007812 898.308594 67.472656 890.734375 65.472656 C 878.558594 62.25 866.171875 60.378906 853.589844 60.039062 C 846.746094 59.855469 839.914062 60.007812 833.0625 60.703125 C 825.585938 61.460938 818.128906 62.375 810.898438 64.265625 C 791.089844 69.445312 772.949219 77.964844 757.234375 91.4375 C 745.851562 101.195312 736.09375 112.242188 728.132812 124.921875 C 724.921875 130.042969 721.945312 135.289062 719.296875 140.726562 C 718.910156 141.519531 718.753906 142.65625 717.457031 142.597656 C 717.257812 142.332031 717.023438 142.097656 716.871094 141.816406 C 708.636719 126.441406 698.425781 112.644531 685.335938 100.96875 C 673.53125 90.433594 660.507812 81.980469 645.96875 75.730469 C 627.71875 67.882812 608.605469 64.453125 588.863281 64.015625 C 584.136719 63.914062 579.425781 64.199219 574.703125 64.621094 C 569.339844 65.101562 564.019531 65.734375 558.71875 66.65625 C 541.054688 69.726562 524.332031 75.421875 508.667969 84.191406 C 495.476562 91.578125 483.558594 100.507812 473.328125 111.757812 C 466.367188 119.410156 460.230469 127.589844 455.050781 136.515625 C 444.300781 155.042969 438.582031 175.152344 436.9375 196.386719 C 435.890625 209.917969 436.59375 223.46875 438.941406 236.859375 C 440.742188 247.140625 443.441406 257.234375 446.910156 267.078125 C 454.425781 288.414062 464.644531 308.4375 476.707031 327.542969 C 491.125 350.382812 507.859375 371.472656 526 391.410156 C 536.316406 402.75 546.894531 413.875 558.171875 424.320312 C 567.511719 432.972656 576.609375 441.886719 586.257812 450.203125 C 593.921875 456.808594 601.515625 463.503906 609.359375 469.886719 C 624.039062 481.839844 638.964844 493.484375 654.386719 504.476562 C 669.003906 514.902344 683.824219 525.027344 699.230469 534.265625 C 702.589844 536.277344 705.960938 538.269531 709.324219 540.28125 C 711.402344 541.523438 711.257812 542.503906 709.191406 543.746094 C 705.554688 545.925781 702.035156 548.308594 698.363281 550.433594 C 682.96875 559.347656 667.417969 567.945312 651.140625 575.214844 C 637.121094 581.476562 622.855469 587.082031 608.28125 591.832031 C 595.117188 596.121094 581.777344 599.863281 568.21875 602.734375 C 558.5 604.789062 548.757812 606.71875 538.878906 607.863281 C 538.054688 607.957031 537.269531 608.109375 536.648438 608.714844 C 537.441406 609.269531 537.75 609.871094 536.847656 610.609375 Z M 615.074219 438.996094 C 602 426.898438 589.421875 414.300781 577.164062 401.40625 C 562.65625 386.144531 548.765625 370.328125 535.773438 353.726562 C 525.398438 340.464844 515.554688 326.851562 506.644531 312.582031 C 494.410156 292.988281 484.320312 272.367188 477.480469 250.246094 C 474.925781 241.984375 473.304688 233.53125 471.890625 225 C 470.921875 219.160156 471.058594 213.296875 470.507812 207.460938 C 470.085938 202.96875 470.65625 198.320312 471.300781 193.8125 C 472.472656 185.589844 474.09375 177.449219 476.855469 169.5625 C 480.558594 158.980469 486.007812 149.394531 492.84375 140.542969 C 503.949219 126.148438 518.089844 115.625 534.335938 107.746094 C 543.484375 103.308594 553.160156 100.449219 563.039062 98.207031 C 572.617188 96.03125 582.296875 94.828125 591.242188 95.121094 C 613.136719 94.839844 632.8125 99.898438 651.273438 109.832031 C 659.652344 114.34375 667.179688 120.011719 674.332031 126.285156 C 687.414062 137.761719 697.148438 151.722656 705.429688 166.855469 C 706.925781 169.589844 707.222656 172.085938 706.425781 175.195312 C 702.242188 191.457031 701.394531 208.0625 702.53125 224.730469 C 702.996094 231.523438 704.183594 238.339844 707.238281 244.601562 C 708.019531 246.203125 708.851562 247.84375 709.96875 249.207031 C 715.058594 255.414062 722.863281 254.960938 727.484375 248.820312 C 730.199219 245.214844 731.597656 241.050781 732.636719 236.753906 C 735.390625 225.351562 735.222656 213.734375 734.460938 202.183594 C 733.84375 192.769531 732.238281 183.414062 729.46875 174.351562 C 728.480469 171.125 728.890625 168.417969 730.382812 165.464844 C 736.078125 154.199219 742.648438 143.46875 750.863281 133.914062 C 760.589844 122.601562 771.59375 112.664062 784.777344 105.351562 C 796.886719 98.636719 809.785156 94.429688 823.410156 92.066406 C 832.484375 90.492188 841.585938 90.003906 850.699219 90.574219 C 861.609375 91.257812 872.324219 93.316406 882.847656 96.375 C 900.066406 101.378906 915.363281 109.894531 928.816406 121.644531 C 936.984375 128.78125 943.574219 137.300781 949.070312 146.664062 C 955.332031 157.328125 959.394531 168.808594 961.671875 180.914062 C 962.390625 184.742188 963.167969 188.589844 963.15625 192.539062 C 963.148438 195.796875 964.308594 199.011719 963.8125 202.28125 C 962.957031 207.929688 963.078125 213.640625 962.324219 219.316406 C 961.289062 227.097656 959.628906 234.707031 957.648438 242.273438 C 955.085938 252.074219 951.574219 261.554688 947.660156 270.878906 C 942.789062 282.476562 937.046875 293.644531 930.992188 304.667969 C 921.46875 322.011719 910.636719 338.515625 899.371094 354.742188 C 890.4375 367.609375 881.183594 380.25 871.28125 392.40625 C 864.6875 400.5 858.210938 408.691406 851.480469 416.671875 C 846.113281 423.03125 840.570312 429.25 834.890625 435.332031 C 826.867188 443.921875 818.695312 452.371094 810.5 460.800781 C 799.335938 472.277344 787.515625 483.066406 775.535156 493.667969 C 766.378906 501.773438 756.90625 509.53125 747.136719 516.90625 C 742.578125 520.34375 738.015625 523.777344 733.445312 527.199219 C 732.398438 527.980469 731.257812 528.644531 730.257812 529.476562 C 728.859375 530.636719 727.605469 530.4375 726.300781 529.359375 C 725.800781 528.945312 725.21875 528.632812 724.683594 528.257812 C 709.996094 517.929688 695.457031 507.398438 681.375 496.253906 C 667.296875 485.109375 653.464844 473.679688 640.011719 461.785156 C 631.574219 454.320312 623.339844 446.644531 615.074219 438.996094 Z M 715.804688 213.722656 C 716.433594 209.910156 716.792969 206.015625 717.34375 202.078125 C 718.488281 202.730469 718.605469 203.933594 718.742188 204.894531 C 719.789062 212.28125 721.457031 219.625 720.867188 227.15625 C 720.613281 230.390625 720.113281 233.605469 719.632812 236.8125 C 719.523438 237.558594 719.234375 238.371094 718.296875 238.914062 C 716.644531 237.15625 716.53125 234.773438 716.230469 232.644531 C 715.34375 226.375 714.753906 220.117188 715.804688 213.722656 Z M 715.804688 213.722656 " fill-opacity="1" fill-rule="nonzero"/></g><path fill="#a52b7f" d="M 511.246094 613.65625 C 513.339844 614.101562 515.4375 613.75 517.507812 613.554688 C 523.601562 612.976562 529.675781 612.242188 535.757812 611.570312 C 535.757812 611.570312 535.757812 611.566406 535.757812 611.566406 C 536.121094 611.25 536.472656 610.917969 536.847656 610.609375 C 537.75 609.871094 537.441406 609.269531 536.648438 608.714844 C 536.023438 608.761719 535.402344 608.808594 534.777344 608.855469 C 532.972656 610.484375 530.820312 609.660156 528.792969 609.703125 C 528.792969 609.699219 528.796875 609.699219 528.796875 609.699219 C 528.792969 609.699219 528.792969 609.699219 528.792969 609.703125 C 523.019531 610.144531 517.246094 610.574219 511.476562 611.050781 C 511.03125 611.085938 510.609375 611.429688 510.179688 611.628906 C 510.179688 611.628906 510.175781 611.628906 510.175781 611.628906 C 510.894531 612.113281 511.257812 612.785156 511.246094 613.65625 Z M 511.246094 613.65625 " fill-opacity="1" fill-rule="nonzero"/><path fill="#d6bddf" d="M 925.742188 610.753906 C 924.171875 610.761719 924.476562 611.648438 924.832031 612.582031 C 926.101562 612.652344 927.367188 612.722656 928.632812 612.789062 C 930.351562 612.699219 932.125 612.214844 933.636719 613.515625 C 933.640625 613.515625 933.640625 613.515625 933.640625 613.515625 C 938.226562 613.648438 942.714844 615.03125 947.347656 614.597656 C 946.832031 613.4375 945.105469 614.121094 944.363281 612.886719 C 946.601562 612.785156 948.53125 612.699219 950.460938 612.613281 C 950.457031 612.613281 950.457031 612.613281 950.457031 612.613281 C 946.957031 611.332031 943.277344 611.910156 939.683594 611.597656 C 937.625 611.691406 935.5 612.355469 933.628906 610.871094 C 932.695312 610.800781 931.757812 610.730469 930.824219 610.660156 C 929.128906 610.691406 927.433594 610.746094 925.742188 610.753906 Z M 925.742188 610.753906 " fill-opacity="1" fill-rule="nonzero"/><path fill="#a52b7f" d="M 505.257812 612.6875 C 506.085938 612.699219 506.800781 612.40625 507.339844 611.75 C 502.5 611.859375 497.664062 611.953125 492.824219 612.09375 C 492.371094 612.105469 491.925781 612.410156 491.476562 612.578125 C 491.476562 612.578125 491.472656 612.578125 491.472656 612.578125 C 496.066406 613.070312 500.664062 612.636719 505.257812 612.6875 Z M 505.257812 612.6875 " fill-opacity="1" fill-rule="nonzero"/><path fill="#a52b7f" d="M 534.777344 608.855469 C 532.738281 608.824219 530.652344 608.429688 528.796875 609.699219 C 528.796875 609.699219 528.792969 609.699219 528.792969 609.703125 C 530.820312 609.660156 532.972656 610.484375 534.777344 608.855469 Z M 534.777344 608.855469 " fill-opacity="1" fill-rule="nonzero"/><path fill="#a52b7f" d="M 939.683594 611.597656 C 937.773438 610.472656 935.691406 610.75 933.628906 610.871094 C 935.5 612.355469 937.625 611.691406 939.683594 611.597656 Z M 939.683594 611.597656 " fill-opacity="1" fill-rule="nonzero"/><path fill="#a52b7f" d="M 500.6875 613.722656 C 499.847656 613.714844 499.09375 613.964844 498.515625 614.613281 C 501.859375 614.660156 505.246094 615.226562 508.46875 613.800781 C 508.46875 613.800781 508.46875 613.800781 508.472656 613.800781 C 505.875 613.773438 503.28125 613.738281 500.6875 613.722656 Z M 500.6875 613.722656 " fill-opacity="1" fill-rule="nonzero"/><g clip-path="url(#9309294671)"><path fill="#d6bddf" d="M 959.097656 615.523438 C 956.863281 614.070312 954.417969 614.734375 952.03125 614.8125 C 954.300781 615.894531 956.707031 615.652344 959.097656 615.523438 Z M 959.097656 615.523438 " fill-opacity="1" fill-rule="nonzero"/></g><path fill="#a52b7f" d="M 928.632812 612.789062 C 930.175781 613.902344 931.90625 613.71875 933.640625 613.515625 C 933.640625 613.515625 933.640625 613.515625 933.636719 613.515625 C 932.125 612.214844 930.351562 612.699219 928.632812 612.789062 Z M 928.632812 612.789062 " fill-opacity="1" fill-rule="nonzero"/><g clip-path="url(#9e9cef69a8)"><g transform="matrix(1, 0, 0, 1, 0, 0.000000000000039746)"><g clip-path="url(#8419e8dead)"><g clip-path="url(#348a69d6ce)"><g mask="url(#6c501add3f)"><g transform="matrix(1, 0, 0, 1, 0, 0.000000000000039746)"><g clip-path="url(#e45c498ef5)"><g clip-path="url(#d88c44cae4)"><path fill="url(#f9d52a3cc8)" d="M 12.050781 0 L 12.050781 810 L 1417.550781 810 L 1417.550781 0 Z M 12.050781 0 " fill-rule="nonzero"/></g></g></g></g></g></g></g></g><g transform="matrix(1, 0, 0, 1, 0, 431)"><g clip-path="url(#311269a698)"><g clip-path="url(#ac7f204243)"><g transform="matrix(1, 0, 0, 1, 0, 0.000000000000056843)"><g clip-path="url(#4ff15de709)"><g clip-path="url(#58a61dd7ba)"><g mask="url(#2dcabfab05)"><g transform="matrix(1, 0, 0, 1, 0, 0.000000000000056843)"><g clip-path="url(#dc89e4884b)"><g clip-path="url(#5857fc9c1d)"><path fill="url(#822fcd21b7)" d="M 0 14.429688 L 0 379 L 1440 379 L 1440 14.429688 Z M 0 14.429688 " fill-rule="nonzero"/></g></g></g></g></g></g></g></g></g></g></svg>